# xmcd
#
# Track frame offsets:
#	183
#	9315
#	19200
#	35618
#	48178
#	58798
#	72203
#	80710
#	91965
#	105913
#	118890
#	133890
#	144525
#
# Disc length: 2118 seconds
#
# Revision: 1
# Processed by: cddbd v1.5.2PL0 Copyright (c) Steve Scherf et al.
# Submitted via: EasyCDDAExtractor 5.1.0
#
DISCID=b008440d
DTITLE=Isabelle Aubret - Chansonnettes et chansons
DYEAR=1990
DGENRE=Country
TTITLE0=A LA CLAIRE FONTAINE
TTITLE1=TRA LA LA
TTITLE2=AUX MARCHES DU PALAIS
TTITLE3=JE VOLE
TTITLE4=FLEUR D'ÉPINE
TTITLE5=L'ENFANT AU CERF VOLANT
TTITLE6=DÉPART EN TARENTELLE
TTITLE7=AU CLAIR DE LA LUNE
TTITLE8=L'ILE SAINT LOUIS
TTITLE9=MÊME SI CELA NE VAUT PAS LA PEINE
TTITLE10=LA BOHÊME
TTITLE11=L'OISEAU DE LIBERTÉ
TTITLE12=DORS BIEN LA TERRE
EXTD=
EXTT0=
EXTT1=
EXTT2=
EXTT3=
EXTT4=
EXTT5=
EXTT6=
EXTT7=
EXTT8=
EXTT9=
EXTT10=
EXTT11=
EXTT12=
PLAYORDER=
